<?xml version="1.0" encoding="UTF-8"?>
<svg version="1.1" xmlns="http://www.w3.org/2000/svg" width="2711" height="342">
<path d="M0 0 C0.84272461 0.20399414 1.68544922 0.40798828 2.55371094 0.61816406 C14.56165472 3.6146978 25.89280145 7.54948714 37 13 C37.92256592 13.44400146 37.92256592 13.44400146 38.86376953 13.89697266 C46.50317213 17.61132364 53.64390124 21.91207568 60.625 26.75 C61.26880615 27.19045654 61.9126123 27.63091309 62.57592773 28.0847168 C66.95925452 31.20990178 70.95967197 34.70005464 74.90649414 38.35351562 C75.47249423 38.87708775 76.03849432 39.40065987 76.62164593 39.94009781 C83.22472572 46.08801155 89.59228896 52.46672246 95.95703125 58.859375 C97.23860416 60.1428195 98.52040286 61.42603859 99.80241394 62.70904541 C103.13026036 66.04065879 106.45508964 69.37526652 109.77923584 72.71057129 C113.19015042 76.13182724 116.603998 79.55015398 120.01757812 82.96875 C126.68121125 89.64301736 133.34165124 96.32046115 140 103 C144.57517574 99.17673702 148.91486132 95.21845397 153.09619141 90.96972656 C153.66154602 90.3996991 154.22690063 89.82967163 154.80938721 89.24237061 C156.02551151 88.0158235 157.24052542 86.78817459 158.45451736 85.55951691 C160.38775091 83.60401984 162.32512879 81.65271761 164.26376343 79.70257568 C169.77183679 74.16115125 175.27581912 68.61571843 180.76904297 63.05957031 C184.14214096 59.64843359 187.52284072 56.24498322 190.90824509 52.84606171 C192.18425539 51.5620937 193.45750594 50.27537595 194.72771072 48.98566437 C204.81150706 38.74979019 215.34114745 29.508851 227.625 21.9375 C228.28193848 21.53176758 228.93887695 21.12603516 229.61572266 20.70800781 C266.66913596 -1.63671722 312.79547724 -9.60734914 355.13037109 0.26367188 C386.45228358 8.30067103 412.46856393 23.00899654 436 45 C434.39743331 48.9539611 431.65883404 51.64370205 428.69580078 54.6105957 C427.88570053 55.43318123 427.88570053 55.43318123 427.05923462 56.27238464 C425.27668823 58.07898106 423.48661441 59.8778684 421.6953125 61.67578125 C420.4521425 62.92791719 419.20905073 64.1801308 417.96603394 65.43241882 C415.36209538 68.05283337 412.75380701 70.66883409 410.14306641 73.2824707 C406.79295304 76.63798452 403.4593159 80.00937694 400.12938118 83.38490009 C397.56935901 85.97459914 394.99822161 88.55303692 392.42382431 91.12843895 C391.18931124 92.36716838 389.95893529 93.6100348 388.73276138 94.85701942 C387.02104646 96.59546982 385.29437475 98.31754885 383.56298828 100.03637695 C383.05687012 100.55732941 382.55075195 101.07828186 382.02929688 101.61502075 C380.59353638 103.02119446 380.59353638 103.02119446 378 105 C373.86642304 104.87780553 371.381577 102.01143781 368.3125 99.4375 C351.35419197 85.846834 330.51666521 80.65052274 309 82 C281.40842435 85.30538673 263.63375881 101.18390752 244.7734375 120.12890625 C243.53241651 121.37179712 242.291171 122.61446384 241.04971313 123.85691833 C237.81553685 127.09487498 234.58437742 130.3358253 231.35388184 133.57745361 C228.04376212 136.89788491 224.73073608 140.2154137 221.41796875 143.53320312 C214.94249848 150.01933147 208.47021828 156.50863283 202 163 C203.62292032 167.07125086 206.52736686 169.81606066 209.57617188 172.85083008 C210.43033691 173.71266151 210.43033691 173.71266151 211.30175781 174.59190369 C213.18560664 176.4896481 215.07679084 178.37987466 216.96875 180.26953125 C218.28736988 181.59204059 219.60576658 182.91477249 220.9239502 184.23771667 C223.69133901 187.01256951 226.46257429 189.7835122 229.23632812 192.55200195 C232.77061968 196.0805258 236.29347614 199.6202202 239.81322479 203.16324329 C242.53622175 205.90106459 245.26621354 208.63182883 247.9981842 211.36069298 C249.29853076 212.66154928 250.59654818 213.96473851 251.89207458 215.27039528 C270.11301241 233.61617029 290.40868486 245.90011427 317 246.25 C339.850185 246.04718771 359.02710831 236.73434102 376 222 C382.85907115 227.61937662 389.03009491 233.90314511 395.27734375 240.1796875 C396.45539258 241.35960447 397.63366466 242.53929858 398.81214905 243.71878052 C401.89347142 246.80389691 404.97177716 249.89200589 408.04943848 252.98077393 C411.19844034 256.14005733 414.35032171 259.29646516 417.50195312 262.453125 C423.6707711 268.63262527 429.83640129 274.8152939 436 281 C433.63937429 285.95000653 430.2192286 288.56406033 426 292 C425.08089844 292.75539063 424.16179688 293.51078125 423.21484375 294.2890625 C386.06556153 323.87698639 341.21060734 335.152464 294.21484375 330.5390625 C289.74208526 329.96110638 285.37729393 329.07775374 281 328 C279.73808838 327.69400879 279.73808838 327.69400879 278.45068359 327.38183594 C266.44455426 324.38629904 255.10131702 320.46131769 244 315 C243.36900391 314.69336426 242.73800781 314.38672852 242.08789062 314.07080078 C220.91451488 303.66217647 203.86964129 288.20201965 187.38671875 271.58203125 C186.03810596 270.22967669 184.68904232 268.87777161 183.33955383 267.52629089 C179.83191317 264.01110528 176.33032663 260.48995159 172.83007812 256.96740723 C169.240051 253.3567219 165.64417653 249.75186967 162.04882812 246.14648438 C155.02690145 239.10326959 148.01137326 232.05371949 141 225 C136.46525293 228.79161452 132.15616048 232.70966869 128.01147461 236.92260742 C127.45747986 237.48127502 126.90348511 238.03994263 126.33270264 238.61553955 C125.1411345 239.81752882 123.95067738 241.02062032 122.76124382 242.22472191 C120.865549 244.14269593 118.96569768 246.05646184 117.06459045 247.96907043 C111.66312011 253.40387307 106.26571449 258.84265628 100.87915039 264.29223633 C97.57091692 267.6385696 94.25503093 270.9771638 90.93445015 274.31124306 C89.684379 275.56925817 88.43706394 276.83001932 87.19282341 278.0938015 C76.57219437 288.87820892 65.37953048 298.85256004 52.3125 306.625 C51.19077393 307.29728638 51.19077393 307.29728638 50.04638672 307.9831543 C23.56001294 323.55705392 -4.61226404 331.22184566 -35.3125 331.25 C-36.07188873 331.25100708 -36.83127747 331.25201416 -37.61367798 331.25305176 C-49.32065808 331.24254987 -60.55800437 330.66721224 -72 328 C-73.88138672 327.58234375 -73.88138672 327.58234375 -75.80078125 327.15625 C-104.00540274 320.24656448 -129.73804973 306.82738321 -150.52880859 286.43603516 C-152.08097444 284.92096056 -153.65841536 283.43535186 -155.23828125 281.94921875 C-178.46723112 259.79305756 -192.56120783 230.95575233 -200 200 C-200.17934082 199.26475098 -200.35868164 198.52950195 -200.54345703 197.77197266 C-209.35272487 159.65679889 -201.81071122 116.81358616 -183 83 C-182.42507812 81.9378125 -181.85015625 80.875625 -181.2578125 79.78125 C-161.83464943 45.0522764 -130.06597565 19.67712569 -93 6 C-92.05036377 5.64446045 -92.05036377 5.64446045 -91.08154297 5.28173828 C-63.26505111 -4.91206373 -28.87739923 -7.05891981 0 0 Z M-98 108 C-113.91274607 126.6874841 -120.35178172 148.66792909 -119 173 C-116.75190467 193.83097509 -106.04377609 213.59144948 -90.3203125 227.34375 C-77.06181147 237.83557196 -60.14589273 246.2545264 -43 247 C-41.9996875 247.0515625 -40.999375 247.103125 -39.96875 247.15625 C-14.8389583 247.83543356 5.22339318 238.62476879 23.34864807 221.5725975 C28.39024199 216.77144163 33.29200701 211.82832548 38.203125 206.89453125 C39.41886652 205.67691838 40.63483366 204.45953074 41.85101318 203.24235535 C45.00954233 200.08005736 48.1650538 196.91476567 51.31988525 193.7487793 C54.55644475 190.50188262 57.79593359 187.2579113 61.03515625 184.01367188 C67.35959525 177.67859528 73.68084112 171.34034315 80 165 C78.36437465 160.87315028 75.38216997 158.07949 72.30371094 154.99731445 C71.72118561 154.40646561 71.13866028 153.81561676 70.53848267 153.2068634 C68.60923575 151.25351318 66.67240871 149.30791161 64.734375 147.36328125 C63.38064407 146.00057595 62.02698718 144.63779708 60.67340088 143.27494812 C57.8289655 140.41401345 54.98015537 137.55751222 52.12890625 134.70336914 C48.50623473 131.07534909 44.89993719 127.43152156 41.29760361 123.78332233 C38.50230126 120.95800137 35.69553847 118.14427227 32.88568878 115.33342552 C31.5533536 113.99692794 30.22507156 112.65637533 28.90123749 111.31145668 C10.99732783 93.14554546 -9.64819982 80.92901504 -35.9375 80.625 C-59.68789864 80.92768138 -81.62227762 90.69791991 -98 108 Z " fill="#810DED" transform="translate(207,7)"/>
<path d="M0 0 C1.00780518 0.00829834 2.01561035 0.01659668 3.05395508 0.02514648 C20.20562724 0.41173667 33.6590854 6.90088507 46.125 18.66015625 C50.4679611 23.2551642 54.14050157 28.25051708 57.75 33.4375 C58.19730469 32.99019531 58.64460938 32.54289062 59.10546875 32.08203125 C60.36653663 30.82096337 61.62829543 29.56058617 62.890625 28.30078125 C64.33251143 26.85586565 65.76248326 25.39905563 67.1875 23.9375 C84.99500192 6.56432739 103.18830789 -0.06121325 127.78125 0.234375 C144.59906056 0.66212328 160.23202774 7.44690998 172.06640625 19.4609375 C190.34408024 39.1848578 194.93951246 64.04512176 194.86352539 89.96533203 C194.86367142 91.28352432 194.86381744 92.60171661 194.8639679 93.95985413 C194.86425266 97.54387234 194.8584081 101.1278565 194.85139394 104.71186686 C194.8451067 108.46878794 194.84455238 112.22570996 194.84336853 115.9826355 C194.84027096 123.08321137 194.83207895 130.18377169 194.82201904 137.28434074 C194.81080881 145.37389662 194.80533512 153.46345327 194.80032361 161.55301499 C194.78989489 178.18118718 194.77156916 194.80933797 194.75 211.4375 C177.92 211.4375 161.09 211.4375 143.75 211.4375 C143.73018066 207.58731201 143.71036133 203.73712402 143.68994141 199.77026367 C143.62294631 187.02975004 143.54540567 174.28931873 143.46247292 161.54889965 C143.41246161 153.82664638 143.3660179 146.10440311 143.328125 138.38208008 C143.29506838 131.64723848 143.25516289 124.91247726 143.20720994 118.17772466 C143.18208004 114.61542194 143.16025983 111.0531716 143.14665604 107.49080467 C143.13129919 103.50311205 143.10064425 99.51567164 143.06884766 95.52807617 C143.06668747 94.36137894 143.06452728 93.1946817 143.06230164 91.99263 C142.93303978 79.24940497 140.72673017 69.54772694 134.0625 58.6875 C126.06621183 50.90732773 116.78485656 47.99733044 105.86083984 48.07836914 C95.67676612 48.3567944 89.25524624 51.97958101 81.953125 58.92578125 C76.27960975 65.39399101 73.64673058 72.57236396 73.59178162 81.081604 C73.5819928 82.23142761 73.57220398 83.38125122 73.56211853 84.56591797 C73.55636307 85.8232373 73.5506076 87.08055664 73.54467773 88.37597656 C73.53509513 89.71645405 73.52508482 91.05692855 73.51467896 92.3973999 C73.48766525 96.03339152 73.46663658 99.66939606 73.44667697 103.30543232 C73.42479559 107.10645715 73.39741744 110.90744228 73.37062073 114.70843506 C73.32072293 121.90480467 73.2757733 129.10119635 73.23259836 136.29760909 C73.18320109 144.49104252 73.1282922 152.6844361 73.07291877 160.87783098 C72.95914344 177.73101857 72.85302231 194.58424273 72.75 211.4375 C55.92 211.4375 39.09 211.4375 21.75 211.4375 C21.720271 205.66221802 21.720271 205.66221802 21.68994141 199.77026367 C21.62294631 187.02975004 21.54540567 174.28931873 21.46247292 161.54889965 C21.41246161 153.82664638 21.3660179 146.10440311 21.328125 138.38208008 C21.29506838 131.64723848 21.25516289 124.91247726 21.20720994 118.17772466 C21.18208004 114.61542194 21.16025983 111.0531716 21.14665604 107.49080467 C21.13129919 103.50311205 21.10064425 99.51567164 21.06884766 95.52807617 C21.06668747 94.36137894 21.06452728 93.1946817 21.06230164 91.99263 C20.93303978 79.24940497 18.72673017 69.54772694 12.0625 58.6875 C4.06621183 50.90732773 -5.21514344 47.99733044 -16.13916016 48.07836914 C-26.32323388 48.3567944 -32.74475376 51.97958101 -40.046875 58.92578125 C-45.72039025 65.39399101 -48.35326942 72.57236396 -48.40821838 81.081604 C-48.4180072 82.23142761 -48.42779602 83.38125122 -48.43788147 84.56591797 C-48.44363693 85.8232373 -48.4493924 87.08055664 -48.45532227 88.37597656 C-48.46490487 89.71645405 -48.47491518 91.05692855 -48.48532104 92.3973999 C-48.51233475 96.03339152 -48.53336342 99.66939606 -48.55332303 103.30543232 C-48.57520441 107.10645715 -48.60258256 110.90744228 -48.62937927 114.70843506 C-48.67927707 121.90480467 -48.7242267 129.10119635 -48.76740164 136.29760909 C-48.81679891 144.49104252 -48.8717078 152.6844361 -48.92708123 160.87783098 C-49.04085655 177.73101715 -49.14770527 194.58424032 -49.25 211.4375 C-55.87010775 211.60585946 -62.4903815 211.76572481 -69.11083984 211.91967773 C-71.36316577 211.97305731 -73.61544643 212.02838348 -75.86767578 212.08569336 C-79.10439292 212.16771682 -82.34120808 212.2427457 -85.578125 212.31640625 C-87.08925873 212.35695885 -87.08925873 212.35695885 -88.63092041 212.39833069 C-89.57159363 212.41842697 -90.51226685 212.43852325 -91.48144531 212.45922852 C-92.72054657 212.48920677 -92.72054657 212.48920677 -93.98468018 212.51979065 C-96.25 212.4375 -96.25 212.4375 -100.25 211.4375 C-100.25 143.7875 -100.25 76.1375 -100.25 6.4375 C-84.74 6.4375 -69.23 6.4375 -53.25 6.4375 C-52.755 18.3175 -52.755 18.3175 -52.25 30.4375 C-47.56960758 24.44812737 -47.56960758 24.44812737 -43 18.375 C-32.39435935 5.80924095 -15.98459949 -0.17069235 0 0 Z " fill="#FCFAFA" transform="translate(1119.25,83.5625)"/>
<path d="M0 0 C16.83 0 33.66 0 51 0 C51.33 29.04 51.66 58.08 52 88 C54.31 85.36 56.62 82.72 59 80 C71.85362092 65.54539427 90.16657966 56.29021987 109.52636719 54.71264648 C113.14798801 54.59962608 116.75190684 54.58343809 120.375 54.625 C122.28744507 54.6391394 122.28744507 54.6391394 124.23852539 54.65356445 C133.17324543 54.79688999 141.40805947 55.3877983 150 58 C151.16917969 58.35191406 152.33835937 58.70382813 153.54296875 59.06640625 C166.20473682 63.25017476 176.8936942 69.35596189 187 78 C188.010625 78.763125 189.02125 79.52625 190.0625 80.3125 C194.57839978 84.44406788 198.25763567 89.16966285 202 94 C202.93392578 95.19302734 202.93392578 95.19302734 203.88671875 96.41015625 C221.99022488 120.77869596 226.26049039 153.8949102 222.17553711 183.34204102 C218.83651592 203.76463531 211.15659989 221.97593603 198 238 C197.46117187 238.70253906 196.92234375 239.40507812 196.3671875 240.12890625 C181.63171386 258.4556888 157.93673401 269.24372703 135 272 C108.97071323 273.68218374 85.64176174 270.88340369 65.40625 253.23828125 C60.54177498 248.71337185 55.99330786 244.32441048 52 239 C51.67 247.91 51.34 256.82 51 266 C34.17 266 17.34 266 0 266 C0 178.22 0 90.44 0 0 Z M66 121 C53.17272613 136.64727766 49.6432741 153.18668213 51 173 C52.81907397 188.4799628 61.54473478 202.74972852 73 213 C87.7683304 224.36501404 102.88488867 226.25276473 121 225 C125.58440723 224.3256082 129.76883714 222.87503427 134 221 C134.80179688 220.649375 135.60359375 220.29875 136.4296875 219.9375 C151.21151036 212.57216266 161.45909516 198.45656776 167.00390625 183.24609375 C172.36063836 165.46795385 170.07956744 147.41866993 161.46875 131.09765625 C153.19864783 117.19062122 141.29591231 108.01294605 126 103 C103.18102548 97.81073451 82.09879417 104.22364715 66 121 Z " fill="#FCFAFA" transform="translate(1355,29)"/>
<path d="M0 0 C2.86540557 2.51364461 5.67958563 5.08014605 8.46435547 7.68261719 C6.86178878 11.63657829 4.12318951 14.32631923 1.16015625 17.29321289 C0.350056 18.11579842 0.350056 18.11579842 -0.47640991 18.95500183 C-2.2589563 20.76159825 -4.04903012 22.56048559 -5.84033203 24.35839844 C-7.08350203 25.61053437 -8.3265938 26.86274798 -9.5696106 28.11503601 C-12.17354915 30.73545055 -14.78183752 33.35145127 -17.39257812 35.96508789 C-20.74269149 39.32060171 -24.07632864 42.69199413 -27.40626335 46.06751728 C-29.96628552 48.65721633 -32.53742292 51.23565411 -35.11182022 53.81105614 C-36.34633329 55.04978556 -37.57670924 56.29265199 -38.80288315 57.53963661 C-40.51459807 59.27808701 -42.24126978 61.00016603 -43.97265625 62.71899414 C-44.47877441 63.23994659 -44.98489258 63.76089905 -45.50634766 64.29763794 C-46.94210815 65.70381165 -46.94210815 65.70381165 -49.53564453 67.68261719 C-53.66922149 67.56042271 -56.15406754 64.694055 -59.22314453 62.12011719 C-76.18145256 48.52945119 -97.01897932 43.33313993 -118.53564453 44.68261719 C-145.12567461 47.86802181 -162.67126771 62.61307509 -180.90459061 80.97639847 C-182.74499341 82.82978557 -184.58869518 84.67983701 -186.43319702 86.52914429 C-190.34520033 90.45246448 -194.2532222 94.37973526 -198.16064453 98.30761719 C-202.70176545 102.87246903 -207.24457424 107.43561538 -211.79163742 111.9945488 C-213.59492332 113.80424565 -215.39513626 115.61695986 -217.19522095 117.42984009 C-222.14570374 122.40225362 -227.11586244 127.2737258 -232.45663452 131.83068848 C-237.40886126 136.24200485 -242.0149032 141.04174571 -246.69189453 145.74121094 C-247.84609347 146.89727881 -249.00051625 148.05312325 -250.15515137 149.20875549 C-253.16905861 152.22645049 -256.17994856 155.24713806 -259.19018555 158.26849365 C-262.27224527 161.36084866 -265.35719686 164.45031587 -268.44189453 167.54003906 C-274.47595258 173.58476831 -280.50682096 179.63266725 -286.53564453 185.68261719 C-293.31280418 180.12424978 -299.41914806 173.92630057 -305.59423828 167.72167969 C-306.74986682 166.56418293 -307.90571867 165.40690908 -309.06178284 164.24984741 C-312.08392191 161.22391501 -315.10304406 158.19499022 -318.121521 155.16540527 C-321.210199 152.06644423 -324.30175788 148.97036006 -327.39306641 145.87402344 C-333.44339552 139.81301324 -339.49053646 133.74883472 -345.53564453 127.68261719 C-343.94637111 123.75770234 -341.24563667 121.13000454 -338.27905273 118.21484375 C-337.74380478 117.68091003 -337.20855682 117.14697632 -336.65708923 116.59686279 C-334.88808756 114.83434608 -333.11221619 113.07891651 -331.33642578 111.32324219 C-330.10001016 110.09310237 -328.86411188 108.86244239 -327.62870789 107.63128662 C-324.37231 104.38819199 -321.11040279 101.15070063 -317.84686279 97.91479492 C-312.64041976 92.75143816 -307.44054533 87.58149056 -302.24410057 82.40807343 C-300.43698458 80.61108764 -298.62644064 78.8176114 -296.81550598 77.0244751 C-291.85794873 72.10305579 -287.00107052 67.16493053 -282.46507263 61.8470459 C-277.60397845 56.39387985 -272.34036967 51.29970799 -267.18408203 46.12792969 C-266.54477375 45.48579403 -265.90546547 44.84365837 -265.24678421 44.18206406 C-261.86286085 40.78322476 -258.47612855 37.38721526 -255.08691406 33.99365234 C-251.62089088 30.52215778 -248.16424194 27.04148652 -244.70975304 23.55851936 C-242.02080155 20.85077512 -239.3250007 18.14992626 -236.62739944 15.45080185 C-235.35170287 14.1721153 -234.07846208 12.89097304 -232.80793381 11.60715103 C-222.71414948 1.4153298 -212.17271128 -7.82195984 -199.91064453 -15.37988281 C-199.25370605 -15.78561523 -198.59676758 -16.19134766 -197.91992188 -16.609375 C-135.68222474 -54.14125411 -55.08114352 -47.25244045 0 0 Z " fill="#690BF7" transform="translate(634.53564453125,44.3173828125)"/>
<path d="M0 0 C0.99345932 0.00031723 0.99345932 0.00031723 2.00698853 0.00064087 C12.04138421 0.03263376 20.86002623 0.5992681 30.25 4.375 C31.22066406 4.74882813 32.19132813 5.12265625 33.19140625 5.5078125 C48.16206889 11.79590724 59.55678916 21.45071889 69.25 34.375 C69.58 25.135 69.91 15.895 70.25 6.375 C87.08 6.375 103.91 6.375 121.25 6.375 C121.25 74.025 121.25 141.675 121.25 211.375 C104.42 211.375 87.59 211.375 70.25 211.375 C69.92 202.135 69.59 192.895 69.25 183.375 C63.14965578 190.15033258 63.14965578 190.15033258 57.0625 196.9375 C41.85208229 211.83103401 20.87990776 217.98809201 0.0625 217.8125 C-1.83943115 217.80114014 -1.83943115 217.80114014 -3.77978516 217.78955078 C-13.87744484 217.61334656 -23.15178889 216.51426454 -32.75 213.375 C-33.72598145 213.06151611 -33.72598145 213.06151611 -34.72167969 212.74169922 C-59.15348945 204.60791717 -78.83150776 186.20001816 -90.7109375 163.578125 C-104.0423082 136.86559323 -106.84996866 100.92840242 -97.75 72.375 C-97.53569336 71.6835791 -97.32138672 70.9921582 -97.10058594 70.27978516 C-92.05197108 54.44682925 -83.89633451 41.60055601 -72.75 29.375 C-72.15574219 28.69824219 -71.56148437 28.02148438 -70.94921875 27.32421875 C-52.91455438 7.85752148 -25.72250083 -0.03402233 0 0 Z M-32.75 65.375 C-45.32101948 81.07334348 -50.14010002 97.41240722 -48.75 117.375 C-46.68243528 134.1786624 -37.66356466 148.88681354 -24.875 159.75 C-10.9536993 170.29906016 4.36300934 171.66888894 21.25 170.375 C25.83233548 169.68733568 30.01803921 168.25038787 34.25 166.375 C35.05179688 166.024375 35.85359375 165.67375 36.6796875 165.3125 C51.44423399 157.95577095 61.77278228 143.81365157 67.25390625 128.5859375 C72.57301809 110.75277994 70.34994616 92.81418381 61.71875 76.4765625 C53.45766365 62.56520482 41.54319093 53.38705417 26.25 48.375 C4.4616672 43.42011285 -17.38452776 48.93313741 -32.75 65.375 Z " fill="#FCFAFA" transform="translate(855.75,83.625)"/>
<path d="M0 0 C4.12366142 1.62457435 6.85684202 4.61046311 9.89501953 7.71557617 C10.47450851 8.29959198 11.0539975 8.88360779 11.65104675 9.48532104 C12.9076354 10.75285705 14.16194092 12.02265962 15.4142189 13.29445457 C17.40328154 15.3137489 19.39900562 17.32623527 21.396698 19.33699036 C27.07515075 25.05511908 32.74098061 30.7856949 38.40332031 36.51977539 C41.87038918 40.02983143 45.34495501 43.53232991 48.82387924 47.03063393 C50.14157412 48.35882423 51.4563516 49.68991605 52.76800919 51.02406883 C70.97483291 69.54241241 91.28440042 81.89847895 118 82.25 C140.850185 82.04718771 160.02710831 72.73434102 177 58 C183.85907115 63.61937662 190.03009491 69.90314511 196.27734375 76.1796875 C197.45539258 77.35960447 198.63366466 78.53929858 199.81214905 79.71878052 C202.89347142 82.80389691 205.97177716 85.89200589 209.04943848 88.98077393 C212.19844034 92.14005733 215.35032171 95.29646516 218.50195312 98.453125 C224.6707711 104.63262527 230.83640129 110.8152939 237 117 C234.63937429 121.95000653 231.2192286 124.56406033 227 128 C226.08089844 128.75539063 225.16179687 129.51078125 224.21484375 130.2890625 C187.06556153 159.87698639 142.21060734 171.152464 95.21484375 166.5390625 C90.74208526 165.96110638 86.37729393 165.07775374 82 164 C81.15872559 163.79600586 80.31745117 163.59201172 79.45068359 163.38183594 C67.44455426 160.38629904 56.10131702 156.46131769 45 151 C44.36900391 150.69336426 43.73800781 150.38672852 43.08789062 150.07080078 C21.95801797 139.68356216 4.89964494 124.21286442 -11.6484375 107.72265625 C-12.99982412 106.3802609 -14.35127598 105.03793123 -15.70278931 103.69566345 C-18.50473322 100.91004526 -21.30240345 98.12021226 -24.09765625 95.32788086 C-27.68497147 91.74601234 -31.28829263 88.18069647 -34.8954525 84.61882877 C-37.67812399 81.86579099 -40.44958175 79.10167551 -43.21797562 76.33428764 C-44.54322442 75.01324839 -45.87260025 73.69633603 -47.20612717 72.38365364 C-49.05612304 70.56035763 -50.88983302 68.72210614 -52.72021484 66.87915039 C-53.55056496 66.07105171 -53.55056496 66.07105171 -54.39768982 65.24662781 C-57.94902511 61.62497443 -57.94902511 61.62497443 -58.16410828 58.98796082 C-56.42019367 56.00985821 -54.10035912 53.70994238 -51.65405273 51.31347656 C-51.09795319 50.75693893 -50.54185364 50.20040131 -49.96890259 49.6269989 C-48.13082172 47.79100642 -46.28234668 45.96586561 -44.43359375 44.140625 C-43.15641614 42.86904314 -41.87989969 41.59679689 -40.60401917 40.32391357 C-37.24536118 36.97670588 -33.87779136 33.63860517 -30.50830078 30.30230713 C-27.07108069 26.89578373 -23.64234523 23.48074415 -20.21289062 20.06640625 C-13.48354791 13.36923096 -6.74476188 6.68164379 0 0 Z " fill="#FC669C" transform="translate(406,171)"/>
<path d="M0 0 C3.40432627 3.53526189 6.38495626 7.32923923 9.234375 11.3203125 C11.9582981 8.67650478 14.45245513 6.05475203 16.796875 3.0703125 C28.37417887 -10.4807302 46.39332398 -18.7217108 63.859375 -20.4921875 C83.92878144 -21.52420293 101.61831189 -16.22757518 117.359375 -3.4921875 C129.08554753 7.32088143 137.53851615 22.51718711 138.41420364 38.62898445 C138.48008197 42.64156755 138.48215995 46.64949904 138.46142578 50.66235352 C138.4608608 52.20060722 138.46117993 53.73886147 138.46231079 55.27711487 C138.4628819 59.42938997 138.45116692 63.58154827 138.43716288 67.73379636 C138.42461505 72.08195981 138.42348183 76.43012629 138.42111206 80.77830505 C138.41490916 89.00161861 138.39851452 97.22487865 138.37841308 105.44816869 C138.35601695 114.81457619 138.34505133 124.18098632 138.33502221 133.54741395 C138.31414719 152.80507792 138.27858905 172.06268893 138.234375 191.3203125 C130.314375 191.3203125 122.394375 191.3203125 114.234375 191.3203125 C114.22628815 189.55766556 114.21820129 187.79501862 114.20986938 185.97895813 C114.13226587 169.3389818 114.04460562 152.69908681 113.94684792 136.0592165 C113.89684945 127.50523455 113.85040571 118.95126158 113.8125 110.3972168 C113.7794299 102.93648553 113.73951724 95.47582663 113.69158494 88.01517552 C113.66646829 84.069394 113.64464435 80.12365957 113.63103104 76.17782021 C113.61807459 72.45383529 113.59587839 68.7300131 113.56699181 65.00611877 C113.55378626 63.00835838 113.550021 61.01054233 113.54667664 59.01274109 C113.40752224 43.79162322 111.83584089 30.17534759 101.234375 18.5078125 C90.34429232 8.37321779 76.87966938 4.59320938 62.33984375 5.01171875 C51.79440922 5.60482254 43.26002467 9.63227111 35.234375 16.3203125 C34.52539062 16.89394531 33.81640625 17.46757813 33.0859375 18.05859375 C21.81776188 28.13950948 18.84807153 41.30779504 18.03956223 55.81614304 C17.95217951 59.43502092 17.92178602 63.04951294 17.91552734 66.66943359 C17.9061979 68.04094514 17.89602492 69.41245115 17.88508606 70.78395081 C17.85811122 74.45861283 17.8427349 78.13323726 17.82965803 81.80797148 C17.81388286 85.66634587 17.78713966 89.52464501 17.7616272 93.38296509 C17.71509135 100.66753468 17.67822647 107.95211884 17.64495432 115.23675978 C17.60655338 123.5392708 17.55719117 131.84170578 17.50697017 140.1441524 C17.40402568 157.2028181 17.31503381 174.26152737 17.234375 191.3203125 C9.314375 191.3203125 1.394375 191.3203125 -6.765625 191.3203125 C-6.77371185 189.60999847 -6.78179871 187.89968445 -6.79013062 186.13754272 C-6.86776872 169.98350922 -6.95543796 153.82955912 -7.05315208 137.67563438 C-7.10312812 129.37166533 -7.14957184 121.06770542 -7.1875 112.76367188 C-7.22059372 105.52010651 -7.26051879 98.27661534 -7.30841506 91.0331322 C-7.33350863 87.20301407 -7.35533894 83.37294406 -7.36896896 79.54276657 C-7.38194694 75.92629815 -7.40416457 72.30999624 -7.43300819 68.69362068 C-7.44618247 66.75688544 -7.44997477 64.8200932 -7.45332336 62.88331604 C-7.61195291 45.99066476 -9.51914025 31.50598464 -21.578125 18.8203125 C-32.6437517 8.64060456 -43.97500225 4.62182742 -58.984375 4.97265625 C-68.86274574 5.88089488 -76.99636419 9.24866576 -84.765625 15.3203125 C-85.37921875 15.75988281 -85.9928125 16.19945312 -86.625 16.65234375 C-96.01986941 23.86477668 -100.71936306 34.65762134 -102.28453064 46.12071228 C-102.96963557 52.4681261 -102.94219497 58.81542311 -102.97094727 65.19360352 C-102.98054445 66.57422669 -102.99055556 67.95484704 -103.00094604 69.33546448 C-103.02780202 73.05793509 -103.04891512 76.78041813 -103.06894803 80.50293088 C-103.0909278 84.40268757 -103.1182574 88.3024068 -103.14500427 92.20213318 C-103.19476999 99.57541727 -103.23976811 106.94872234 -103.28302664 114.32204717 C-103.33253745 122.72115347 -103.38740391 131.12022215 -103.44270623 139.519292 C-103.55627856 156.78626422 -103.6629808 174.05327198 -103.765625 191.3203125 C-111.685625 191.3203125 -119.605625 191.3203125 -127.765625 191.3203125 C-127.765625 123.6703125 -127.765625 56.0203125 -127.765625 -13.6796875 C-119.845625 -13.6796875 -111.925625 -13.6796875 -103.765625 -13.6796875 C-103.435625 -6.0896875 -103.105625 1.5003125 -102.765625 9.3203125 C-101.63125 7.6703125 -100.496875 6.0203125 -99.328125 4.3203125 C-89.42627584 -9.23599769 -76.66893479 -16.92485212 -60.2421875 -20.1796875 C-37.5116192 -23.20036103 -16.51293393 -15.48762104 0 0 Z " fill="#FCFAFA" transform="translate(2247.765625,103.6796875)"/>
<path d="M0 0 C7.92 0 15.84 0 24 0 C24 87.78 24 175.56 24 266 C16.08 266 8.16 266 0 266 C-0.33 253.13 -0.66 240.26 -1 227 C-3.64 230.3 -6.28 233.6 -9 237 C-28.67281004 258.87412565 -52.97890394 271.0650558 -82.60058594 272.89355469 C-109.41629039 274.08318097 -134.1263006 265.65753285 -155 249 C-155.89203125 248.29230469 -156.7840625 247.58460938 -157.703125 246.85546875 C-178.04800039 229.61350675 -191.19660655 203.38963642 -194 177 C-195.3357177 146.79121921 -191.01076766 117.35139085 -170.53515625 93.75 C-169.28025391 92.38875 -169.28025391 92.38875 -168 91 C-167.51901855 90.47664063 -167.03803711 89.95328125 -166.54248047 89.4140625 C-146.07348842 67.38743639 -120.48605906 55.60332894 -90.51757812 54.0859375 C-62.36554726 53.12496825 -36.83554685 63.05859377 -16 82 C-10.38460522 87.68748972 -5.65892667 93.47750266 -1 100 C-0.505 50.5 -0.505 50.5 0 0 Z M-147.921875 107.19140625 C-163.12927049 125.20255963 -170.47667804 146.95839957 -168.6015625 170.57568359 C-166.2682108 194.25618606 -155.85246736 214.20716112 -137.72265625 229.87109375 C-118.81189 244.65784785 -96.51662267 250.25698839 -72.83544922 247.77294922 C-53.47268026 245.12811906 -37.59046425 235.57115961 -24 222 C-22.88625 220.90365234 -22.88625 220.90365234 -21.75 219.78515625 C-7.34473637 204.67651061 -0.20437758 183.60126035 0 163 C-0.91506536 137.51716716 -11.52763688 116.58020358 -29.875 99.1875 C-64.70977881 69.28217102 -117.24211538 72.68183814 -147.921875 107.19140625 Z " fill="#FCFAFA" transform="translate(2053,29)"/>
<path d="M0 0 C5.61539478 5.68748972 10.34107333 11.47750266 15 18 C15.33 5.13 15.66 -7.74 16 -21 C23.92 -21 31.84 -21 40 -21 C40 46.65 40 114.3 40 184 C32.08 184 24.16 184 16 184 C15.67 171.13 15.34 158.26 15 145 C12.36 148.3 9.72 151.6 7 155 C-12.67281004 176.87412565 -36.97890394 189.0650558 -66.60058594 190.89355469 C-93.41629039 192.08318097 -118.1263006 183.65753285 -139 167 C-139.89203125 166.29230469 -140.7840625 165.58460938 -141.703125 164.85546875 C-162.03455017 147.6249056 -175.22298383 121.38165358 -178 95 C-179.28481133 64.80440463 -174.9836748 35.32016203 -154.53515625 11.75 C-153.28025391 10.38875 -153.28025391 10.38875 -152 9 C-151.51901855 8.47664063 -151.03803711 7.95328125 -150.54248047 7.4140625 C-130.07348842 -14.61256361 -104.48605906 -26.39667106 -74.51757812 -27.9140625 C-46.36554726 -28.87503175 -20.83554685 -18.94140623 0 0 Z M-131.921875 25.19140625 C-147.12927049 43.20255963 -154.47667804 64.95839957 -152.6015625 88.57568359 C-150.2682108 112.25618606 -139.85246736 132.20716112 -121.72265625 147.87109375 C-102.81189 162.65784785 -80.51662267 168.25698839 -56.83544922 165.77294922 C-37.47268026 163.12811906 -21.59046425 153.57115961 -8 140 C-6.88625 138.90365234 -6.88625 138.90365234 -5.75 137.78515625 C8.65526363 122.67651061 15.79562242 101.60126035 16 81 C15.08493464 55.51716716 4.47236312 34.58020358 -13.875 17.1875 C-48.70977881 -12.71782898 -101.24211538 -9.31816186 -131.921875 25.19140625 Z " fill="#FCFAFA" transform="translate(1784,111)"/>
<path d="M0 0 C13.41391573 13.93823817 22.13717539 32.69959908 22.12025452 52.22628784 C22.12231651 54.06873833 22.12231651 54.06873833 22.12442017 55.94841003 C22.12088177 57.29617334 22.11724697 58.6439364 22.11352539 59.99169922 C22.1132431 61.42113747 22.11340207 62.85057587 22.1139679 64.28001404 C22.11425423 68.14938282 22.10838392 72.01872047 22.10139394 75.88808203 C22.09513319 79.935976 22.09455445 83.98387073 22.09336853 88.0317688 C22.09026324 95.69204958 22.08206066 103.35231604 22.07201904 111.01259053 C22.060833 119.73565725 22.05534118 128.45872467 22.05032361 137.18179679 C22.03987738 155.12120619 22.0220915 173.06060142 22 191 C14.08 191 6.16 191 -2 191 C-2.01981934 187.14570313 -2.03963867 183.29140625 -2.06005859 179.3203125 C-2.12717268 166.53992017 -2.20471258 153.75960856 -2.28752708 140.97930908 C-2.33745186 133.23590021 -2.38389536 125.49250087 -2.421875 117.74902344 C-2.45502289 110.99252699 -2.49497603 104.23610922 -2.54279006 97.47970009 C-2.56783094 93.90885451 -2.58967551 90.33805959 -2.60334396 86.76715088 C-2.26933819 50.1326204 -2.26933819 50.1326204 -19.87109375 18.97265625 C-31.41722842 8.0026281 -46.70903728 4.46143635 -62.19677734 4.58032227 C-82.6183499 5.25126132 -99.84416543 15.28136605 -113.75 29.75 C-126.20435646 44.1049315 -128.11354835 59.31717683 -128.20532227 77.58813477 C-128.22017166 79.43353096 -128.22017166 79.43353096 -128.23532104 81.31620789 C-128.26134726 84.66267027 -128.28327488 88.00911086 -128.30332303 91.35561109 C-128.32532318 94.8629891 -128.35264264 98.37032576 -128.37937927 101.87767029 C-128.42911784 108.50721691 -128.47412582 115.13678673 -128.51740164 121.76637834 C-128.56693593 129.31907043 -128.62179354 136.87172098 -128.67708123 144.42437279 C-128.79061178 159.94954482 -128.89681026 175.47475528 -129 191 C-136.92 191 -144.84 191 -153 191 C-153 123.35 -153 55.7 -153 -14 C-145.08 -14 -137.16 -14 -129 -14 C-128.67 -3.44 -128.34 7.12 -128 18 C-125.03 13.545 -125.03 13.545 -122 9 C-108.16647633 -7.72051991 -87.07595957 -18.21697265 -65.6875 -20.8125 C-41.46717752 -22.24777837 -17.93955399 -17.27306901 0 0 Z " fill="#FCFAFA" transform="translate(2647,104)"/>
<path d="M0 0 C6.77715965 5.5583674 12.88350353 11.75631661 19.05859375 17.9609375 C20.21422229 19.11843426 21.37007414 20.27570811 22.52613831 21.43276978 C25.54827738 24.45870218 28.56739953 27.48762697 31.58587646 30.51721191 C34.67455447 33.61617295 37.76611335 36.71225713 40.85742188 39.80859375 C46.90775098 45.86960394 52.95489193 51.93378247 59 58 C57.3993244 61.97526224 54.62856444 64.64020304 51.63232422 67.59472656 C51.08583221 68.14151062 50.53934021 68.68829468 49.97628784 69.25164795 C48.17378907 71.05275649 46.36431604 72.84668247 44.5546875 74.640625 C43.30157633 75.89000495 42.04890681 77.13982801 40.79666138 78.39007568 C37.50324045 81.67586872 34.20385709 84.9556107 30.90319824 88.23413086 C27.53471006 91.58214253 24.1718924 94.93583907 20.80859375 98.2890625 C14.21126824 104.86495296 7.60763017 111.43446516 1 118 C-5.77715965 112.4416326 -11.88350353 106.24368339 -18.05859375 100.0390625 C-19.21422229 98.88156574 -20.37007414 97.72429189 -21.52613831 96.56723022 C-24.54827738 93.54129782 -27.56739953 90.51237303 -30.58587646 87.48278809 C-33.67455447 84.38382705 -36.76611335 81.28774287 -39.85742188 78.19140625 C-45.90775098 72.13039606 -51.95489193 66.06621753 -58 60 C-56.3993244 56.02473776 -53.62856444 53.35979696 -50.63232422 50.40527344 C-50.08583221 49.85848938 -49.53934021 49.31170532 -48.97628784 48.74835205 C-47.17378907 46.94724351 -45.36431604 45.15331753 -43.5546875 43.359375 C-42.30157633 42.10999505 -41.04890681 40.86017199 -39.79666138 39.60992432 C-36.50324045 36.32413128 -33.20385709 33.0443893 -29.90319824 29.76586914 C-26.53471006 26.41785747 -23.1718924 23.06416093 -19.80859375 19.7109375 C-13.21126824 13.13504704 -6.60763017 6.56553484 0 0 Z " fill="#330099" transform="translate(347,112)"/>
<path d="M0 0 C7.92 0 15.84 0 24 0 C24 67.65 24 135.3 24 205 C16.08 205 8.16 205 0 205 C0 137.35 0 69.7 0 0 Z " fill="#FCFAFA" transform="translate(2428,90)"/>
<path d="M0 0 C5.13583642 2.89413583 9.29449911 7.31499704 11 13 C11.23853599 19.00677003 9.98083451 23.37362476 6 28 C0.55151561 32.11416168 -4.1292325 33.92742299 -11 33 C-15.76620118 30.57017195 -19.0558181 27.45833259 -22 23 C-23.51149979 18.26338146 -23.48080638 14.3002201 -21.4375 9.75 C-16.60038931 1.30612384 -9.45356932 -1.55436045 0 0 Z " fill="#FCFAFA" transform="translate(2446,23)"/>
</svg>
